<mxfile modified="2022-03-27T22:39:05.786Z" host="app.diagrams.net" agent="5.0 (Macintosh; Intel Mac OS X 10_15_7) AppleWebKit/537.36 (KHTML, like Gecko) Chrome/98.0.4758.109 Safari/537.36" etag="HmlcP2CgokGuImARTg0W" version="17.2.4" type="github">
  <diagram id="f106602c-feb2-e66a-4537-3a34d633f6aa" name="Page-1">
    <mxGraphModel dx="1248" dy="3185" grid="1" gridSize="10" guides="1" tooltips="1" connect="1" arrows="1" fold="1" page="1" pageScale="1" pageWidth="1169" pageHeight="827" background="none" math="0" shadow="0">
      <root>
        <mxCell id="0" />
        <mxCell id="1" parent="0" />
        <mxCell id="14" value="&lt;b&gt;Google &lt;/b&gt;Cloud Platform" style="fillColor=#F6F6F6;strokeColor=none;shadow=0;gradientColor=none;fontSize=14;align=left;spacing=10;fontColor=#717171;9E9E9E;verticalAlign=top;spacingTop=-4;fontStyle=0;spacingLeft=40;html=1;" parent="1" vertex="1">
          <mxGeometry x="90" y="100" width="920" height="580" as="geometry" />
        </mxCell>
        <mxCell id="15" value="" style="shape=mxgraph.gcp2.google_cloud_platform;fillColor=#F6F6F6;strokeColor=none;shadow=0;gradientColor=none;" parent="14" vertex="1">
          <mxGeometry width="23" height="20" relative="1" as="geometry">
            <mxPoint x="20" y="10" as="offset" />
          </mxGeometry>
        </mxCell>
        <mxCell id="MIGU6-eD6fpUpQPs3oy--26" value="" style="strokeColor=#dddddd;shadow=1;strokeWidth=1;rounded=1;absoluteArcSize=1;arcSize=2;" vertex="1" parent="14">
          <mxGeometry x="20" y="64" width="860" height="500" as="geometry" />
        </mxCell>
        <mxCell id="MIGU6-eD6fpUpQPs3oy--27" value="Virtual&#xa;Private Cloud" style="sketch=0;dashed=0;connectable=0;html=1;fillColor=#5184F3;strokeColor=none;shape=mxgraph.gcp2.hexIcon;prIcon=virtual_private_cloud;part=1;labelPosition=right;verticalLabelPosition=middle;align=left;verticalAlign=middle;spacingLeft=5;fontColor=#999999;fontSize=12;direction=south;" vertex="1" parent="MIGU6-eD6fpUpQPs3oy--26">
          <mxGeometry x="4.75" y="-4.25" width="70.5" height="80" relative="1" as="geometry">
            <mxPoint x="5" y="-51" as="offset" />
          </mxGeometry>
        </mxCell>
        <mxCell id="9" value="Kube-name-space" style="strokeColor=#dddddd;fillColor=#ffffff;shadow=1;strokeWidth=1;rounded=1;absoluteArcSize=1;arcSize=2;labelPosition=center;verticalLabelPosition=middle;align=center;verticalAlign=bottom;spacingLeft=0;fontColor=#999999;fontSize=12;whiteSpace=wrap;spacingBottom=2;html=1;" parent="MIGU6-eD6fpUpQPs3oy--26" vertex="1">
          <mxGeometry x="190" y="20" width="400" height="460" as="geometry" />
        </mxCell>
        <mxCell id="MIGU6-eD6fpUpQPs3oy--32" value="Cloud&#xa;Bigtable" style="sketch=0;html=1;fillColor=#5184F3;strokeColor=none;verticalAlign=top;labelPosition=center;verticalLabelPosition=bottom;align=center;spacingTop=-6;fontSize=11;fontStyle=1;fontColor=#999999;shape=mxgraph.gcp2.hexIcon;prIcon=cloud_bigtable" vertex="1" parent="MIGU6-eD6fpUpQPs3oy--26">
          <mxGeometry x="30" y="376" width="66" height="58.5" as="geometry" />
        </mxCell>
        <mxCell id="MIGU6-eD6fpUpQPs3oy--25" value="" style="sketch=0;aspect=fixed;html=1;points=[];align=center;image;fontSize=12;image=img/lib/mscae/Kubernetes.svg;" vertex="1" parent="MIGU6-eD6fpUpQPs3oy--26">
          <mxGeometry x="190" y="432" width="50" height="48" as="geometry" />
        </mxCell>
        <mxCell id="MIGU6-eD6fpUpQPs3oy--33" value="" style="strokeColor=#dddddd;shadow=1;strokeWidth=1;rounded=1;absoluteArcSize=1;arcSize=2;" vertex="1" parent="MIGU6-eD6fpUpQPs3oy--26">
          <mxGeometry x="720" y="440" width="140" height="60" as="geometry" />
        </mxCell>
        <mxCell id="MIGU6-eD6fpUpQPs3oy--34" value="Virtual&#xa;Private Cloud" style="sketch=0;dashed=0;connectable=0;html=1;fillColor=#5184F3;strokeColor=none;shape=mxgraph.gcp2.hexIcon;prIcon=virtual_private_cloud;part=1;labelPosition=right;verticalLabelPosition=middle;align=left;verticalAlign=middle;spacingLeft=5;fontColor=#999999;fontSize=12;" vertex="1" parent="MIGU6-eD6fpUpQPs3oy--33">
          <mxGeometry y="0.5" width="44" height="39" relative="1" as="geometry">
            <mxPoint x="5" y="-19.5" as="offset" />
          </mxGeometry>
        </mxCell>
        <mxCell id="MIGU6-eD6fpUpQPs3oy--35" value="Cloud SQL" style="sketch=0;html=1;fillColor=#5184F3;strokeColor=none;verticalAlign=top;labelPosition=center;verticalLabelPosition=bottom;align=center;spacingTop=-6;fontSize=11;fontStyle=1;fontColor=#999999;shape=mxgraph.gcp2.hexIcon;prIcon=cloud_sql" vertex="1" parent="MIGU6-eD6fpUpQPs3oy--26">
          <mxGeometry x="30" y="286" width="66" height="58.5" as="geometry" />
        </mxCell>
        <mxCell id="MIGU6-eD6fpUpQPs3oy--37" value="" style="sketch=0;aspect=fixed;html=1;points=[];align=center;image;fontSize=12;image=img/lib/mscae/HDInsight.svg;" vertex="1" parent="MIGU6-eD6fpUpQPs3oy--26">
          <mxGeometry x="38" y="216" width="50" height="48" as="geometry" />
        </mxCell>
        <mxCell id="2" value="Architecture: General &amp;gt; App Engine and Cloud Endpoints" style="fillColor=#4DA1F5;strokeColor=none;shadow=1;gradientColor=none;fontSize=14;align=left;spacingLeft=50;fontColor=#ffffff;html=1;" parent="1" vertex="1">
          <mxGeometry x="85" y="40" width="765" height="40" as="geometry" />
        </mxCell>
        <mxCell id="16" value="" style="rounded=1;absoluteArcSize=1;arcSize=2;html=1;strokeColor=none;gradientColor=none;shadow=0;dashed=0;strokeColor=none;fontSize=12;fontColor=#9E9E9E;align=left;verticalAlign=top;spacing=10;spacingTop=-4;fillColor=#E0E0E0;" parent="1" vertex="1">
          <mxGeometry x="180" y="740" width="670" height="30" as="geometry" />
        </mxCell>
      </root>
    </mxGraphModel>
  </diagram>
</mxfile>
